<svg xmlns="http://www.w3.org/2000/svg" viewBox="0 -0.5 640 640" shape-rendering="crispEdges">
<metadata>Made with Pixels to Svg https://codepen.io/shshaw/pen/XbxvNj</metadata>
<path stroke="#000000" d="M160 110h30M160 111h30M160 112h30M160 113h30M160 114h30M160 115h30M160 116h30M160 117h30M160 118h30M160 119h30M150 120h50M150 121h50M150 122h50M150 123h50M150 124h50M150 125h50M150 126h50M150 127h50M150 128h47M198 128h2M150 129h50M140 130h70M470 130h20M140 131h70M470 131h20M140 132h70M470 132h20M140 133h70M470 133h20M140 134h70M470 134h20M140 135h70M470 135h20M140 136h54M195 136h15M470 136h20M140 137h70M470 137h20M140 138h70M470 138h20M140 139h70M470 139h20M140 140h80M460 140h40M140 141h80M460 141h40M140 142h80M460 142h40M140 143h80M460 143h40M140 144h80M460 144h40M140 145h80M460 145h40M140 146h80M460 146h40M140 147h80M460 147h40M140 148h80M460 148h40M140 149h80M460 149h40M140 150h90M450 150h50M140 151h90M450 151h50M140 152h90M450 152h50M140 153h90M450 153h50M140 154h90M450 154h50M140 155h90M450 155h50M140 156h90M450 156h19M470 156h30M140 157h90M450 157h50M140 158h90M450 158h50M140 159h90M450 159h50M140 160h100M440 160h70M140 161h100M440 161h70M140 162h100M440 162h70M140 163h100M440 163h70M140 164h60M201 164h39M440 164h70M140 165h100M440 165h70M140 166h100M440 166h70M140 167h100M440 167h70M140 168h100M440 168h70M140 169h100M440 169h70M140 170h110M430 170h80M140 171h110M430 171h80M140 172h110M430 172h80M140 173h110M430 173h80M140 174h58M199 174h51M430 174h80M140 175h110M430 175h80M140 176h110M430 176h80M140 177h110M430 177h80M140 178h110M430 178h80M140 179h4M145 179h105M430 179h80M140 180h110M420 180h90M140 181h110M420 181h90M140 182h110M420 182h90M140 183h110M420 183h71M492 183h18M140 184h110M420 184h55M476 184h34M140 185h110M420 185h90M140 186h110M420 186h90M140 187h110M420 187h90M140 188h110M420 188h90M140 189h110M420 189h90M150 190h110M420 190h90M150 191h110M420 191h90M150 192h110M420 192h90M150 193h110M420 193h90M150 194h110M420 194h90M150 195h61M212 195h48M420 195h90M150 196h110M420 196h90M150 197h110M420 197h90M150 198h110M420 198h90M150 199h110M420 199h90M150 200h110M410 200h100M150 201h110M410 201h100M150 202h110M410 202h100M150 203h110M410 203h100M150 204h110M410 204h100M150 205h110M410 205h100M150 206h110M410 206h100M150 207h110M410 207h100M150 208h110M410 208h100M150 209h110M410 209h100M150 210h110M410 210h100M150 211h110M410 211h100M150 212h110M410 212h100M150 213h110M410 213h100M150 214h110M410 214h100M150 215h110M410 215h100M150 216h110M410 216h100M150 217h110M410 217h100M150 218h110M410 218h100M150 219h110M410 219h100M150 220h110M400 220h110M150 221h22M173 221h87M400 221h110M150 222h110M400 222h110M150 223h110M400 223h110M150 224h110M400 224h110M150 225h110M400 225h110M150 226h6M157 226h103M400 226h110M150 227h110M400 227h110M150 228h110M400 228h110M150 229h68M219 229h41M400 229h110M160 230h100M400 230h110M160 231h100M400 231h110M160 232h100M400 232h110M160 233h100M400 233h110M160 234h100M400 234h110M160 235h100M400 235h110M160 236h100M400 236h110M160 237h100M400 237h110M160 238h100M400 238h110M160 239h100M400 239h110M160 240h100M390 240h110M160 241h57M218 241h42M390 241h9M400 241h100M160 242h100M390 242h110M160 243h9M170 243h90M390 243h110M160 244h100M390 244h110M160 245h100M390 245h110M160 246h100M390 246h110M160 247h100M390 247h110M160 248h95M256 248h4M390 248h110M160 249h100M390 249h110M160 250h87M248 250h12M390 250h110M160 251h100M390 251h110M160 252h100M390 252h110M160 253h100M390 253h110M160 254h100M390 254h110M160 255h100M390 255h110M160 256h100M390 256h110M160 257h100M390 257h110M160 258h100M390 258h110M160 259h100M390 259h110M170 260h90M390 260h110M170 261h90M390 261h110M170 262h90M390 262h110M170 263h90M390 263h110M170 264h90M390 264h110M170 265h90M390 265h110M170 266h90M390 266h110M170 267h90M390 267h110M170 268h90M390 268h110M170 269h90M390 269h110M170 270h90M400 270h100M170 271h90M400 271h32M433 271h67M170 272h90M400 272h100M170 273h90M400 273h100M170 274h90M400 274h100M170 275h90M400 275h100M170 276h90M400 276h100M170 277h90M400 277h100M170 278h90M400 278h100M170 279h90M400 279h20M421 279h79M180 280h66M247 280h13M400 280h83M484 280h6M180 281h80M400 281h27M428 281h62M180 282h80M400 282h12M413 282h77M180 283h66M247 283h13M400 283h90M180 284h80M400 284h90M180 285h80M400 285h90M180 286h80M400 286h90M180 287h80M400 287h90M180 288h80M400 288h48M449 288h41M180 289h80M400 289h90M180 290h70M410 290h80M180 291h70M410 291h80M180 292h70M410 292h80M180 293h70M410 293h80M180 294h70M410 294h80M180 295h70M410 295h80M180 296h70M410 296h80M180 297h70M410 297h80M180 298h70M410 298h80M180 299h70M410 299h80M190 300h60M410 300h70M190 301h60M410 301h70M190 302h60M410 302h70M190 303h60M410 303h70M190 304h60M410 304h70M190 305h60M410 305h70M190 306h60M410 306h70M190 307h60M410 307h70M190 308h60M410 308h70M190 309h60M410 309h70M200 310h60M280 310h110M400 310h80M200 311h60M280 311h110M400 311h80M200 312h60M280 312h110M400 312h63M464 312h16M200 313h60M280 313h110M400 313h80M200 314h60M280 314h110M400 314h80M200 315h60M280 315h110M400 315h80M200 316h60M280 316h110M400 316h80M200 317h60M280 317h110M400 317h80M200 318h60M280 318h110M400 318h80M200 319h60M280 319h110M400 319h80M210 320h260M210 321h260M210 322h260M210 323h260M210 324h260M210 325h260M210 326h144M355 326h30M386 326h84M210 327h234M445 327h25M210 328h151M362 328h108M210 329h255M466 329h4M210 330h260M210 331h209M420 331h50M210 332h251M462 332h8M210 333h260M210 334h260M210 335h125M336 335h134M210 336h260M210 337h260M210 338h260M210 339h260M210 340h260M210 341h260M210 342h260M210 343h260M210 344h260M210 345h260M210 346h260M210 347h260M210 348h56M267 348h203M210 349h222M433 349h37M210 350h260M210 351h88M299 351h171M210 352h260M210 353h260M210 354h260M210 355h260M210 356h115M326 356h144M210 357h260M210 358h79M290 358h180M210 359h212M423 359h47M200 360h280M200 361h280M200 362h280M200 363h280M200 364h280M200 365h280M200 366h280M200 367h280M200 368h280M200 369h280M190 370h290M190 371h290M190 372h274M465 372h15M190 373h290M190 374h290M190 375h290M190 376h290M190 377h290M190 378h290M190 379h290M190 380h295M486 380h4M190 381h300M190 382h247M438 382h52M190 383h300M190 384h155M346 384h144M190 385h300M190 386h300M190 387h300M190 388h300M190 389h300M180 390h178M359 390h63M423 390h67M180 391h310M180 392h310M180 393h72M253 393h237M180 394h310M180 395h310M180 396h310M180 397h310M180 398h310M180 399h185M366 399h124M170 400h60M270 400h150M460 400h40M170 401h60M270 401h150M460 401h40M170 402h60M270 402h150M460 402h40M170 403h60M270 403h150M460 403h40M170 404h60M270 404h150M460 404h40M170 405h60M270 405h150M460 405h40M170 406h60M270 406h150M460 406h40M170 407h60M270 407h150M460 407h40M170 408h60M270 408h150M460 408h40M170 409h60M270 409h150M460 409h40M80 410h10M170 410h50M280 410h130M470 410h30M540 410h20M80 411h10M170 411h50M280 411h130M470 411h30M540 411h20M80 412h10M170 412h50M280 412h130M470 412h30M540 412h20M80 413h10M170 413h50M280 413h130M470 413h30M540 413h20M80 414h10M170 414h50M280 414h130M470 414h30M540 414h20M80 415h10M170 415h50M280 415h130M470 415h30M540 415h20M80 416h10M170 416h50M280 416h130M470 416h30M540 416h20M80 417h10M170 417h50M280 417h130M470 417h30M540 417h20M80 418h10M170 418h5M176 418h44M280 418h130M470 418h30M540 418h20M80 419h10M170 419h50M280 419h130M470 419h30M540 419h20M90 420h20M170 420h36M207 420h13M240 420h20M280 420h130M430 420h20M470 420h30M520 420h20M90 421h20M170 421h50M240 421h20M280 421h130M430 421h20M470 421h30M520 421h20M90 422h20M170 422h50M240 422h20M280 422h130M430 422h20M470 422h30M520 422h20M90 423h20M170 423h50M240 423h20M280 423h130M430 423h20M470 423h30M520 423h20M90 424h20M170 424h50M240 424h20M280 424h130M430 424h20M470 424h30M520 424h20M90 425h20M170 425h50M240 425h20M280 425h130M430 425h20M470 425h30M520 425h20M90 426h20M170 426h50M240 426h20M280 426h113M394 426h16M430 426h20M470 426h30M520 426h20M90 427h20M170 427h50M240 427h20M280 427h130M430 427h20M470 427h30M520 427h20M90 428h20M170 428h50M240 428h20M280 428h130M430 428h20M470 428h30M520 428h20M90 429h20M170 429h50M240 429h20M280 429h130M430 429h20M470 429h30M520 429h20M110 430h20M170 430h50M240 430h20M280 430h130M430 430h20M470 430h50M110 431h20M170 431h50M240 431h20M280 431h130M430 431h20M470 431h50M110 432h20M170 432h50M240 432h20M280 432h130M430 432h20M470 432h44M515 432h5M110 433h20M170 433h50M240 433h20M280 433h130M430 433h20M470 433h24M495 433h25M110 434h20M170 434h50M240 434h20M280 434h130M430 434h20M470 434h50M110 435h20M170 435h50M240 435h20M280 435h117M398 435h12M430 435h20M470 435h50M110 436h20M170 436h50M240 436h20M280 436h130M430 436h20M470 436h50M110 437h20M170 437h50M240 437h20M280 437h116M397 437h13M430 437h20M470 437h50M110 438h20M170 438h50M240 438h20M280 438h130M430 438h20M470 438h50M110 439h20M170 439h50M240 439h20M280 439h130M430 439h20M470 439h50M130 440h20M160 440h60M280 440h130M470 440h40M130 441h20M160 441h60M280 441h130M470 441h40M130 442h20M160 442h60M280 442h130M470 442h40M130 443h20M160 443h60M280 443h130M470 443h40M130 444h15M146 444h4M160 444h60M280 444h130M470 444h40M130 445h20M160 445h60M280 445h130M470 445h40M130 446h20M160 446h60M280 446h130M470 446h40M130 447h20M160 447h60M280 447h130M470 447h40M130 448h20M160 448h60M280 448h130M470 448h40M130 449h20M160 449h60M280 449h96M377 449h33M470 449h40M140 450h90M270 450h150M460 450h50M140 451h90M270 451h150M460 451h50M140 452h90M270 452h150M460 452h50M140 453h90M270 453h150M460 453h50M140 454h90M270 454h150M460 454h50M140 455h90M270 455h150M460 455h50M140 456h2M143 456h87M270 456h150M460 456h50M140 457h90M270 457h150M460 457h50M140 458h90M270 458h150M460 458h50M140 459h90M270 459h150M460 459h50M60 460h20M110 460h13M124 460h6M150 460h380M60 461h20M110 461h20M150 461h293M444 461h86M60 462h20M110 462h20M150 462h380M60 463h20M110 463h20M150 463h380M60 464h20M110 464h20M150 464h380M60 465h20M110 465h20M150 465h380M60 466h20M110 466h20M150 466h380M60 467h20M110 467h20M150 467h231M382 467h148M60 468h20M110 468h20M150 468h54M205 468h325M60 469h20M110 469h20M150 469h380M80 470h30M130 470h175M306 470h204M530 470h30M600 470h20M80 471h30M130 471h41M172 471h338M530 471h30M600 471h20M80 472h30M130 472h64M195 472h315M530 472h30M600 472h20M80 473h30M130 473h380M530 473h30M600 473h20M80 474h30M130 474h380M530 474h30M600 474h20M80 475h30M130 475h380M530 475h30M600 475h20M80 476h30M130 476h380M530 476h30M600 476h20M80 477h30M130 477h380M530 477h30M600 477h20M80 478h30M130 478h270M401 478h109M530 478h30M600 478h20M80 479h30M130 479h380M530 479h30M600 479h20M150 480h370M560 480h40M150 481h370M560 481h40M150 482h370M560 482h40M150 483h8M159 483h361M560 483h40M150 484h30M181 484h11M193 484h327M560 484h40M150 485h370M560 485h40M150 486h370M560 486h40M150 487h370M560 487h40M150 488h370M560 488h40M150 489h236M387 489h133M560 489h40M130 490h238M369 490h151M130 491h390M130 492h390M130 493h390M130 494h390M130 495h390M130 496h179M310 496h201M512 496h8M130 497h390M130 498h216M347 498h173M130 499h390M110 500h20M140 500h355M496 500h44M110 501h20M140 501h400M110 502h20M140 502h400M110 503h20M140 503h25M166 503h374M110 504h20M140 504h400M110 505h20M140 505h400M110 506h20M140 506h92M233 506h307M110 507h20M140 507h400M110 508h20M140 508h400M110 509h20M140 509h400M80 510h30M130 510h390M540 510h30M80 511h30M130 511h390M540 511h30M80 512h3M84 512h26M130 512h390M540 512h30M80 513h30M130 513h390M540 513h30M80 514h30M130 514h390M540 514h30M80 515h30M130 515h49M180 515h340M540 515h30M80 516h30M130 516h390M540 516h30M80 517h30M130 517h390M540 517h30M80 518h30M130 518h390M540 518h30M80 519h30M130 519h343M474 519h46M540 519h30M70 520h10M120 520h410M570 520h20M70 521h10M120 521h410M570 521h20M70 522h10M120 522h410M570 522h20M70 523h10M120 523h410M570 523h20M70 524h10M120 524h410M570 524h20M70 525h10M120 525h410M570 525h20M70 526h10M120 526h410M570 526h20M70 527h10M120 527h410M570 527h20M70 528h10M120 528h410M570 528h20M70 529h10M120 529h410M570 529h20M60 530h10M110 530h180M400 530h130M60 531h10M110 531h180M400 531h130M60 532h10M110 532h180M400 532h130M60 533h10M110 533h180M400 533h130M60 534h10M110 534h82M193 534h97M400 534h130M60 535h10M110 535h180M400 535h130M60 536h10M110 536h180M400 536h130M60 537h10M110 537h180M400 537h130M60 538h10M110 538h180M400 538h130M60 539h10M110 539h180M400 539h130M110 540h150M420 540h120M110 541h150M420 541h120M110 542h150M420 542h120M110 543h115M226 543h34M420 543h120M110 544h150M420 544h53M474 544h34M509 544h31M110 545h150M420 545h120M110 546h150M420 546h120M110 547h150M420 547h120M110 548h150M420 548h6M427 548h113M110 549h150M420 549h120M110 550h140M440 550h120M110 551h140M440 551h120M110 552h2M113 552h137M440 552h120M110 553h140M440 553h120M110 554h140M440 554h120M110 555h140M440 555h120M110 556h140M440 556h120M110 557h140M440 557h120M110 558h109M220 558h30M440 558h120M110 559h90M201 559h49M440 559h120M100 560h140M450 560h110M100 561h140M450 561h43M494 561h66M100 562h140M450 562h110M100 563h114M215 563h25M450 563h110M100 564h140M450 564h110M100 565h84M185 565h55M450 565h110M100 566h140M450 566h110M100 567h140M450 567h110M100 568h140M450 568h110M100 569h140M450 569h110M90 570h140M320 570h40M460 570h110M90 571h140M320 571h40M460 571h110M90 572h140M320 572h40M460 572h110M90 573h26M117 573h113M320 573h40M460 573h110M90 574h140M320 574h40M460 574h110M90 575h140M320 575h40M460 575h110M90 576h52M143 576h87M320 576h40M460 576h110M90 577h140M320 577h40M460 577h110M90 578h140M320 578h40M460 578h110M90 579h140M320 579h40M460 579h110M90 580h130M310 580h10M360 580h10M470 580h110M90 581h130M310 581h10M360 581h10M470 581h110M90 582h130M310 582h10M360 582h10M470 582h110M90 583h130M310 583h10M360 583h10M470 583h110M90 584h130M310 584h10M360 584h10M470 584h110M90 585h130M310 585h10M360 585h10M470 585h110M90 586h130M310 586h10M360 586h10M470 586h110M90 587h130M310 587h10M360 587h10M470 587h110M90 588h130M310 588h10M360 588h10M470 588h110M90 589h130M310 589h10M360 589h10M470 589h110M80 590h120M480 590h110M80 591h120M480 591h110M80 592h120M480 592h110M80 593h120M480 593h110M80 594h120M480 594h110M80 595h120M480 595h110M80 596h120M480 596h110M80 597h120M480 597h7M488 597h102M80 598h120M480 598h110M80 599h120M480 599h110M80 600h110M240 600h11M252 600h18M420 600h30M500 600h90M80 601h110M240 601h30M420 601h30M500 601h90M80 602h110M240 602h28M269 602h1M420 602h30M500 602h90M80 603h110M240 603h30M420 603h30M500 603h90M80 604h110M240 604h30M420 604h30M500 604h90M80 605h110M240 605h30M420 605h30M500 605h90M80 606h110M240 606h30M420 606h30M500 606h90M80 607h110M240 607h13M254 607h16M420 607h30M500 607h90M80 608h110M240 608h30M420 608h30M500 608h90M80 609h110M240 609h30M420 609h30M500 609h90M70 610h110M230 610h10M270 610h10M410 610h10M450 610h10M510 610h64M575 610h25M70 611h110M230 611h10M270 611h10M410 611h10M450 611h10M510 611h90M70 612h110M230 612h10M270 612h10M410 612h10M450 612h10M510 612h90M70 613h110M230 613h10M270 613h10M410 613h10M450 613h10M510 613h90M70 614h110M230 614h10M270 614h10M410 614h10M450 614h10M510 614h90M70 615h89M160 615h20M230 615h10M270 615h10M410 615h10M450 615h10M510 615h90M70 616h110M230 616h10M270 616h10M410 616h10M450 616h10M510 616h90M70 617h19M90 617h90M230 617h10M270 617h10M410 617h10M450 617h10M510 617h90M70 618h110M230 618h10M270 618h10M410 618h10M450 618h10M510 618h90M70 619h110M230 619h10M270 619h10M410 619h10M450 619h3M454 619h6M510 619h90M60 620h110M330 620h30M520 620h90M60 621h110M330 621h30M520 621h90M60 622h110M330 622h30M520 622h90M60 623h110M330 623h30M520 623h90M60 624h71M132 624h38M330 624h30M520 624h90M60 625h80M141 625h29M330 625h30M520 625h90M60 626h110M330 626h30M520 626h90M60 627h110M330 627h30M520 627h32M553 627h57M60 628h110M330 628h30M520 628h90M60 629h110M330 629h30M520 629h90M60 630h100M320 630h10M360 630h10M530 630h80M60 631h100M320 631h10M360 631h10M530 631h80M60 632h100M320 632h10M360 632h10M530 632h80M60 633h100M320 633h10M360 633h10M530 633h80M60 634h100M320 634h1M322 634h8M360 634h10M530 634h80M60 635h100M320 635h10M360 635h10M530 635h80M60 636h100M320 636h10M360 636h10M530 636h80M60 637h100M320 637h10M360 637h10M530 637h80M60 638h100M320 638h10M360 638h10M530 638h80M60 639h100M320 639h10M360 639h10M530 639h80" />
<path stroke="#010000" d="M197 128h1M144 179h1M491 183h1M399 241h1M432 271h1M463 312h1M385 326h1M361 328h1M461 332h1M298 351h1M325 356h1M464 372h1M485 380h1M345 384h1M358 390h1M175 418h1M206 420h1M204 468h1M305 470h1M158 483h1M192 484h1M309 496h1M495 500h1M232 506h1M179 515h1M116 573h1M552 627h1M321 634h1" />
<path stroke="#000100" d="M194 136h1M200 164h1M475 184h1M211 195h1M218 229h1M247 250h1M483 280h1M448 288h1M444 327h1M465 329h1M419 331h1M289 358h1M422 359h1M252 393h1M393 426h1M514 432h1M494 433h1M145 444h1M142 456h1M123 460h1M443 461h1M194 472h1M180 484h1M346 498h1M83 512h1M192 534h1M225 543h1M473 544h1M508 544h1M426 548h1M112 552h1M200 559h1M214 563h1M184 565h1M142 576h1M268 602h1M253 607h1M140 625h1" />
<path stroke="#000001" d="M469 156h1M198 174h1M172 221h1M156 226h1M217 241h1M169 243h1M255 248h1M420 279h1M246 280h1M427 281h1M412 282h1M246 283h1M354 326h1M335 335h1M266 348h1M432 349h1M437 382h1M422 390h1M365 399h1M397 435h1M396 437h1M376 449h1M381 467h1M171 471h1M400 478h1M386 489h1M368 490h1M511 496h1M165 503h1M473 519h1M219 558h1M493 561h1M487 597h1M251 600h1M574 610h1M159 615h1M89 617h1M453 619h1M131 624h1" />
<path stroke="#ffffff" d="M230 400h40M420 400h40M230 401h40M420 401h40M230 402h40M420 402h40M230 403h40M420 403h40M230 404h40M420 404h40M230 405h40M420 405h40M230 406h40M420 406h40M230 407h40M420 407h40M230 408h40M420 408h40M230 409h40M420 409h40M220 410h13M234 410h46M410 410h60M220 411h60M410 411h11M422 411h48M220 412h60M410 412h60M220 413h60M410 413h60M220 414h60M410 414h60M220 415h60M410 415h60M220 416h60M410 416h60M220 417h60M410 417h60M220 418h60M410 418h60M220 419h60M410 419h60M220 420h20M260 420h20M410 420h20M450 420h20M220 421h20M260 421h20M410 421h20M450 421h20M220 422h20M260 422h20M410 422h20M450 422h20M220 423h20M260 423h20M410 423h20M450 423h20M220 424h20M260 424h20M410 424h20M450 424h20M220 425h20M260 425h20M410 425h20M450 425h20M220 426h20M260 426h20M410 426h20M450 426h20M220 427h20M260 427h20M410 427h20M450 427h20M220 428h20M260 428h20M410 428h20M450 428h20M220 429h20M260 429h20M410 429h20M450 429h20M220 430h20M260 430h20M410 430h20M450 430h20M220 431h20M260 431h20M410 431h20M450 431h20M220 432h20M260 432h20M410 432h20M450 432h20M220 433h20M260 433h20M410 433h20M450 433h20M220 434h20M260 434h20M410 434h20M450 434h20M220 435h20M260 435h20M410 435h20M450 435h20M220 436h20M260 436h20M410 436h20M450 436h20M220 437h20M260 437h20M410 437h20M450 437h20M220 438h20M260 438h20M410 438h20M450 438h20M220 439h20M260 439h20M410 439h20M450 439h20M220 440h60M410 440h60M220 441h60M410 441h60M220 442h60M410 442h60M220 443h60M410 443h60M220 444h60M410 444h60M220 445h60M410 445h60M220 446h60M410 446h60M220 447h60M410 447h60M220 448h60M410 448h60M220 449h60M410 449h60M230 450h40M420 450h40M230 451h40M420 451h40M230 452h40M420 452h40M230 453h40M420 453h40M230 454h40M420 454h40M230 455h40M420 455h40M230 456h40M420 456h40M230 457h40M420 457h40M230 458h40M420 458h40M230 459h40M420 459h40M290 530h110M290 531h110M290 532h110M290 533h110M290 534h110M290 535h110M290 536h110M290 537h110M290 538h110M290 539h110M260 540h160M260 541h160M260 542h160M260 543h160M260 544h160M260 545h160M260 546h160M260 547h160M260 548h160M260 549h160M250 550h190M250 551h190M250 552h190M250 553h190M250 554h190M250 555h85M336 555h104M250 556h190M250 557h190M250 558h190M250 559h190M240 560h210M240 561h210M240 562h210M240 563h210M240 564h210M240 565h210M240 566h210M240 567h210M240 568h210M240 569h210M230 570h90M360 570h100M230 571h90M360 571h100M230 572h90M360 572h100M230 573h90M360 573h100M230 574h90M360 574h100M230 575h90M360 575h100M230 576h90M360 576h100M230 577h27M258 577h62M360 577h100M230 578h90M360 578h100M230 579h90M360 579h22M383 579h77M220 580h90M320 580h40M370 580h100M220 581h90M320 581h40M370 581h100M220 582h90M320 582h40M370 582h100M220 583h90M320 583h40M370 583h100M220 584h90M320 584h40M370 584h100M220 585h8M229 585h81M320 585h40M370 585h100M220 586h90M320 586h40M370 586h100M220 587h90M320 587h40M370 587h100M220 588h90M320 588h40M370 588h100M220 589h90M320 589h40M370 589h100M200 590h119M320 590h160M200 591h280M200 592h36M237 592h243M200 593h280M200 594h280M200 595h280M200 596h280M200 597h280M200 598h280M200 599h280M190 600h50M270 600h150M450 600h50M190 601h50M270 601h150M450 601h50M190 602h50M270 602h150M450 602h50M190 603h50M270 603h150M450 603h50M190 604h50M270 604h150M450 604h50M190 605h50M270 605h150M450 605h50M190 606h50M270 606h36M307 606h113M450 606h50M190 607h50M270 607h150M450 607h50M190 608h50M270 608h150M450 608h50M190 609h50M270 609h150M450 609h50M180 610h50M240 610h30M280 610h1M282 610h128M420 610h30M460 610h50M180 611h50M240 611h30M280 611h130M420 611h30M460 611h50M180 612h50M240 612h30M280 612h130M420 612h30M460 612h50M180 613h50M240 613h30M280 613h130M420 613h30M460 613h50M180 614h50M240 614h30M280 614h130M420 614h30M460 614h50M180 615h50M240 615h30M280 615h130M420 615h30M460 615h50M180 616h50M240 616h30M280 616h130M420 616h30M460 616h50M180 617h50M240 617h30M280 617h130M420 617h30M460 617h50M180 618h50M240 618h30M280 618h130M420 618h30M460 618h50M180 619h50M240 619h30M280 619h130M420 619h30M460 619h50M170 620h160M360 620h160M170 621h160M360 621h160M170 622h160M360 622h160M170 623h160M360 623h160M170 624h160M360 624h160M170 625h160M360 625h160M170 626h160M360 626h160M170 627h160M360 627h160M170 628h160M360 628h160M170 629h160M360 629h160M160 630h160M330 630h30M370 630h59M430 630h100M160 631h9M170 631h150M330 631h30M370 631h160M160 632h160M330 632h30M370 632h160M160 633h160M330 633h30M370 633h160M160 634h160M330 634h30M370 634h160M160 635h160M330 635h30M370 635h34M405 635h125M160 636h160M330 636h30M370 636h160M160 637h160M330 637h30M370 637h160M160 638h160M330 638h30M370 638h160M160 639h48M209 639h111M330 639h30M370 639h54M425 639h105" />
<path stroke="#fffeff" d="M233 410h1M382 579h1" />
<path stroke="#feffff" d="M421 411h1M257 577h1M236 592h1M281 610h1M208 639h1M424 639h1" />
<path stroke="#fffffe" d="M335 555h1M228 585h1M319 590h1M306 606h1M429 630h1M169 631h1M404 635h1" />
</svg>